<svg width="1000" height="500" viewBox="0 0 1000 500" xmlns="http://www.w3.org/2000/svg"><defs><style>
@font-face{font-family:'Lato';src:url('file:///home/kelvin/mats-application/fonts/Lato-Regular.ttf');font-weight:400;font-style:normal}
@font-face{font-family:'Lato';src:url('file:///home/kelvin/mats-application/fonts/Lato-Bold.ttf');font-weight:700;font-style:normal}
@font-face{font-family:'Lato';src:url('file:///home/kelvin/mats-application/fonts/Lato-Light.ttf');font-weight:300;font-style:normal}
text{font-family:'Lato',sans-serif}
</style></defs><rect width="1000" height="500" fill="#ffffff"/><line x1="500" y1="40" x2="500" y2="430" stroke="#d7d7d7" stroke-width="1"/><text x="255" y="66" font-size="20" fill="#1a1a1a" font-weight="700" text-anchor="middle">A diverse world</text><text x="255" y="94" font-size="15" fill="#555555" font-weight="400" text-anchor="middle">failures come one at a time</text><rect x="112" y="150" width="46" height="46" rx="7" fill="#d3dbe0" stroke="#ffffff" stroke-width="1.5"/><rect x="172" y="150" width="46" height="46" rx="7" fill="#cdd9c8" stroke="#ffffff" stroke-width="1.5"/><rect x="232" y="150" width="46" height="46" rx="7" fill="#e3dac6" stroke="#ffffff" stroke-width="1.5"/><rect x="292" y="150" width="46" height="46" rx="7" fill="#f3ddd8" stroke="#ffffff" stroke-width="1.5"/><line x1="304" y1="162" x2="326" y2="184" stroke="#b5402f" stroke-width="3" stroke-linecap="round"/><line x1="326" y1="162" x2="304" y2="184" stroke="#b5402f" stroke-width="3" stroke-linecap="round"/><rect x="352" y="150" width="46" height="46" rx="7" fill="#dccfd4" stroke="#ffffff" stroke-width="1.5"/><rect x="112" y="210" width="46" height="46" rx="7" fill="#cfe0db" stroke="#ffffff" stroke-width="1.5"/><rect x="172" y="210" width="46" height="46" rx="7" fill="#e2d6cf" stroke="#ffffff" stroke-width="1.5"/><rect x="232" y="210" width="46" height="46" rx="7" fill="#d8dcc6" stroke="#ffffff" stroke-width="1.5"/><rect x="292" y="210" width="46" height="46" rx="7" fill="#d3dbe0" stroke="#ffffff" stroke-width="1.5"/><rect x="352" y="210" width="46" height="46" rx="7" fill="#cdd9c8" stroke="#ffffff" stroke-width="1.5"/><rect x="112" y="270" width="46" height="46" rx="7" fill="#e3dac6" stroke="#ffffff" stroke-width="1.5"/><rect x="172" y="270" width="46" height="46" rx="7" fill="#f3ddd8" stroke="#ffffff" stroke-width="1.5"/><line x1="184" y1="282" x2="206" y2="304" stroke="#b5402f" stroke-width="3" stroke-linecap="round"/><line x1="206" y1="282" x2="184" y2="304" stroke="#b5402f" stroke-width="3" stroke-linecap="round"/><rect x="232" y="270" width="46" height="46" rx="7" fill="#dccfd4" stroke="#ffffff" stroke-width="1.5"/><rect x="292" y="270" width="46" height="46" rx="7" fill="#cfe0db" stroke="#ffffff" stroke-width="1.5"/><rect x="352" y="270" width="46" height="46" rx="7" fill="#e2d6cf" stroke="#ffffff" stroke-width="1.5"/><rect x="112" y="330" width="46" height="46" rx="7" fill="#d8dcc6" stroke="#ffffff" stroke-width="1.5"/><rect x="172" y="330" width="46" height="46" rx="7" fill="#d3dbe0" stroke="#ffffff" stroke-width="1.5"/><rect x="232" y="330" width="46" height="46" rx="7" fill="#cdd9c8" stroke="#ffffff" stroke-width="1.5"/><rect x="292" y="330" width="46" height="46" rx="7" fill="#e3dac6" stroke="#ffffff" stroke-width="1.5"/><rect x="352" y="330" width="46" height="46" rx="7" fill="#f3ddd8" stroke="#ffffff" stroke-width="1.5"/><line x1="364" y1="342" x2="386" y2="364" stroke="#b5402f" stroke-width="3" stroke-linecap="round"/><line x1="386" y1="342" x2="364" y2="364" stroke="#b5402f" stroke-width="3" stroke-linecap="round"/><rect x="112" y="390" width="46" height="46" rx="7" fill="#dccfd4" stroke="#ffffff" stroke-width="1.5"/><rect x="172" y="390" width="46" height="46" rx="7" fill="#cfe0db" stroke="#ffffff" stroke-width="1.5"/><rect x="232" y="390" width="46" height="46" rx="7" fill="#f3ddd8" stroke="#ffffff" stroke-width="1.5"/><line x1="244" y1="402" x2="266" y2="424" stroke="#b5402f" stroke-width="3" stroke-linecap="round"/><line x1="266" y1="402" x2="244" y2="424" stroke="#b5402f" stroke-width="3" stroke-linecap="round"/><rect x="292" y="390" width="46" height="46" rx="7" fill="#d8dcc6" stroke="#ffffff" stroke-width="1.5"/><rect x="352" y="390" width="46" height="46" rx="7" fill="#d3dbe0" stroke="#ffffff" stroke-width="1.5"/><text x="255" y="480" font-size="14" fill="#555555" font-weight="400" text-anchor="middle" font-style="italic">a hack here, a coup there — the rest keeps running</text><text x="745" y="66" font-size="20" fill="#1a1a1a" font-weight="700" text-anchor="middle">One shared weakness</text><text x="745" y="94" font-size="15" fill="#555555" font-weight="400" text-anchor="middle">same model · same chip · same assumption</text><rect x="602" y="150" width="46" height="46" rx="7" fill="#d2cee0" stroke="#ffffff" stroke-width="1.5"/><rect x="662" y="150" width="46" height="46" rx="7" fill="#d2cee0" stroke="#ffffff" stroke-width="1.5"/><rect x="722" y="150" width="46" height="46" rx="7" fill="#d2cee0" stroke="#ffffff" stroke-width="1.5"/><rect x="782" y="150" width="46" height="46" rx="7" fill="#d2cee0" stroke="#ffffff" stroke-width="1.5"/><rect x="842" y="150" width="46" height="46" rx="7" fill="#d2cee0" stroke="#ffffff" stroke-width="1.5"/><rect x="602" y="210" width="46" height="46" rx="7" fill="#d2cee0" stroke="#ffffff" stroke-width="1.5"/><rect x="662" y="210" width="46" height="46" rx="7" fill="#d2cee0" stroke="#ffffff" stroke-width="1.5"/><rect x="722" y="210" width="46" height="46" rx="7" fill="#d2cee0" stroke="#ffffff" stroke-width="1.5"/><rect x="782" y="210" width="46" height="46" rx="7" fill="#d2cee0" stroke="#ffffff" stroke-width="1.5"/><rect x="842" y="210" width="46" height="46" rx="7" fill="#d2cee0" stroke="#ffffff" stroke-width="1.5"/><rect x="602" y="270" width="46" height="46" rx="7" fill="#d2cee0" stroke="#ffffff" stroke-width="1.5"/><rect x="662" y="270" width="46" height="46" rx="7" fill="#d2cee0" stroke="#ffffff" stroke-width="1.5"/><rect x="722" y="270" width="46" height="46" rx="7" fill="#d2cee0" stroke="#ffffff" stroke-width="1.5"/><rect x="782" y="270" width="46" height="46" rx="7" fill="#d2cee0" stroke="#ffffff" stroke-width="1.5"/><rect x="842" y="270" width="46" height="46" rx="7" fill="#d2cee0" stroke="#ffffff" stroke-width="1.5"/><rect x="602" y="330" width="46" height="46" rx="7" fill="#d2cee0" stroke="#ffffff" stroke-width="1.5"/><rect x="662" y="330" width="46" height="46" rx="7" fill="#d2cee0" stroke="#ffffff" stroke-width="1.5"/><rect x="722" y="330" width="46" height="46" rx="7" fill="#d2cee0" stroke="#ffffff" stroke-width="1.5"/><rect x="782" y="330" width="46" height="46" rx="7" fill="#d2cee0" stroke="#ffffff" stroke-width="1.5"/><rect x="842" y="330" width="46" height="46" rx="7" fill="#d2cee0" stroke="#ffffff" stroke-width="1.5"/><rect x="602" y="390" width="46" height="46" rx="7" fill="#d2cee0" stroke="#ffffff" stroke-width="1.5"/><rect x="662" y="390" width="46" height="46" rx="7" fill="#d2cee0" stroke="#ffffff" stroke-width="1.5"/><rect x="722" y="390" width="46" height="46" rx="7" fill="#d2cee0" stroke="#ffffff" stroke-width="1.5"/><rect x="782" y="390" width="46" height="46" rx="7" fill="#d2cee0" stroke="#ffffff" stroke-width="1.5"/><rect x="842" y="390" width="46" height="46" rx="7" fill="#d2cee0" stroke="#ffffff" stroke-width="1.5"/><polyline points="596,168 702.1,307.3 773.6,235.8 894,422" fill="none" stroke="#b5402f" stroke-width="3.2" stroke-linecap="round" stroke-linejoin="round"/><line x1="614" y1="162" x2="636" y2="184" stroke="#b5402f" stroke-width="3" stroke-linecap="round"/><line x1="636" y1="162" x2="614" y2="184" stroke="#b5402f" stroke-width="3" stroke-linecap="round"/><line x1="674" y1="162" x2="696" y2="184" stroke="#b5402f" stroke-width="3" stroke-linecap="round"/><line x1="696" y1="162" x2="674" y2="184" stroke="#b5402f" stroke-width="3" stroke-linecap="round"/><line x1="734" y1="162" x2="756" y2="184" stroke="#b5402f" stroke-width="3" stroke-linecap="round"/><line x1="756" y1="162" x2="734" y2="184" stroke="#b5402f" stroke-width="3" stroke-linecap="round"/><line x1="794" y1="162" x2="816" y2="184" stroke="#b5402f" stroke-width="3" stroke-linecap="round"/><line x1="816" y1="162" x2="794" y2="184" stroke="#b5402f" stroke-width="3" stroke-linecap="round"/><line x1="854" y1="162" x2="876" y2="184" stroke="#b5402f" stroke-width="3" stroke-linecap="round"/><line x1="876" y1="162" x2="854" y2="184" stroke="#b5402f" stroke-width="3" stroke-linecap="round"/><line x1="614" y1="222" x2="636" y2="244" stroke="#b5402f" stroke-width="3" stroke-linecap="round"/><line x1="636" y1="222" x2="614" y2="244" stroke="#b5402f" stroke-width="3" stroke-linecap="round"/><line x1="674" y1="222" x2="696" y2="244" stroke="#b5402f" stroke-width="3" stroke-linecap="round"/><line x1="696" y1="222" x2="674" y2="244" stroke="#b5402f" stroke-width="3" stroke-linecap="round"/><line x1="734" y1="222" x2="756" y2="244" stroke="#b5402f" stroke-width="3" stroke-linecap="round"/><line x1="756" y1="222" x2="734" y2="244" stroke="#b5402f" stroke-width="3" stroke-linecap="round"/><line x1="794" y1="222" x2="816" y2="244" stroke="#b5402f" stroke-width="3" stroke-linecap="round"/><line x1="816" y1="222" x2="794" y2="244" stroke="#b5402f" stroke-width="3" stroke-linecap="round"/><line x1="854" y1="222" x2="876" y2="244" stroke="#b5402f" stroke-width="3" stroke-linecap="round"/><line x1="876" y1="222" x2="854" y2="244" stroke="#b5402f" stroke-width="3" stroke-linecap="round"/><line x1="614" y1="282" x2="636" y2="304" stroke="#b5402f" stroke-width="3" stroke-linecap="round"/><line x1="636" y1="282" x2="614" y2="304" stroke="#b5402f" stroke-width="3" stroke-linecap="round"/><line x1="674" y1="282" x2="696" y2="304" stroke="#b5402f" stroke-width="3" stroke-linecap="round"/><line x1="696" y1="282" x2="674" y2="304" stroke="#b5402f" stroke-width="3" stroke-linecap="round"/><line x1="734" y1="282" x2="756" y2="304" stroke="#b5402f" stroke-width="3" stroke-linecap="round"/><line x1="756" y1="282" x2="734" y2="304" stroke="#b5402f" stroke-width="3" stroke-linecap="round"/><line x1="794" y1="282" x2="816" y2="304" stroke="#b5402f" stroke-width="3" stroke-linecap="round"/><line x1="816" y1="282" x2="794" y2="304" stroke="#b5402f" stroke-width="3" stroke-linecap="round"/><line x1="854" y1="282" x2="876" y2="304" stroke="#b5402f" stroke-width="3" stroke-linecap="round"/><line x1="876" y1="282" x2="854" y2="304" stroke="#b5402f" stroke-width="3" stroke-linecap="round"/><line x1="614" y1="342" x2="636" y2="364" stroke="#b5402f" stroke-width="3" stroke-linecap="round"/><line x1="636" y1="342" x2="614" y2="364" stroke="#b5402f" stroke-width="3" stroke-linecap="round"/><line x1="674" y1="342" x2="696" y2="364" stroke="#b5402f" stroke-width="3" stroke-linecap="round"/><line x1="696" y1="342" x2="674" y2="364" stroke="#b5402f" stroke-width="3" stroke-linecap="round"/><line x1="734" y1="342" x2="756" y2="364" stroke="#b5402f" stroke-width="3" stroke-linecap="round"/><line x1="756" y1="342" x2="734" y2="364" stroke="#b5402f" stroke-width="3" stroke-linecap="round"/><line x1="794" y1="342" x2="816" y2="364" stroke="#b5402f" stroke-width="3" stroke-linecap="round"/><line x1="816" y1="342" x2="794" y2="364" stroke="#b5402f" stroke-width="3" stroke-linecap="round"/><line x1="854" y1="342" x2="876" y2="364" stroke="#b5402f" stroke-width="3" stroke-linecap="round"/><line x1="876" y1="342" x2="854" y2="364" stroke="#b5402f" stroke-width="3" stroke-linecap="round"/><line x1="614" y1="402" x2="636" y2="424" stroke="#b5402f" stroke-width="3" stroke-linecap="round"/><line x1="636" y1="402" x2="614" y2="424" stroke="#b5402f" stroke-width="3" stroke-linecap="round"/><line x1="674" y1="402" x2="696" y2="424" stroke="#b5402f" stroke-width="3" stroke-linecap="round"/><line x1="696" y1="402" x2="674" y2="424" stroke="#b5402f" stroke-width="3" stroke-linecap="round"/><line x1="734" y1="402" x2="756" y2="424" stroke="#b5402f" stroke-width="3" stroke-linecap="round"/><line x1="756" y1="402" x2="734" y2="424" stroke="#b5402f" stroke-width="3" stroke-linecap="round"/><line x1="794" y1="402" x2="816" y2="424" stroke="#b5402f" stroke-width="3" stroke-linecap="round"/><line x1="816" y1="402" x2="794" y2="424" stroke="#b5402f" stroke-width="3" stroke-linecap="round"/><line x1="854" y1="402" x2="876" y2="424" stroke="#b5402f" stroke-width="3" stroke-linecap="round"/><line x1="876" y1="402" x2="854" y2="424" stroke="#b5402f" stroke-width="3" stroke-linecap="round"/><text x="745" y="480" font-size="14" fill="#555555" font-weight="400" text-anchor="middle" font-style="italic">one stroke takes all of them</text></svg>